<svg width="256" height="256" viewBox="0 0 256 256" fill="none" xmlns="http://www.w3.org/2000/svg">
  <defs>
    <linearGradient id="bg" x1="36" y1="24" x2="220" y2="232" gradientUnits="userSpaceOnUse">
      <stop stop-color="#3A180A"/>
      <stop offset="0.55" stop-color="#A44812"/>
      <stop offset="1" stop-color="#F59B33"/>
    </linearGradient>
    <linearGradient id="sigil" x1="73" y1="58" x2="182" y2="194" gradientUnits="userSpaceOnUse">
      <stop stop-color="#FFF2DA"/>
      <stop offset="0.45" stop-color="#FFD48A"/>
      <stop offset="1" stop-color="#FFB347"/>
    </linearGradient>
    <filter id="glow" x="34" y="34" width="188" height="188" filterUnits="userSpaceOnUse" color-interpolation-filters="sRGB">
      <feGaussianBlur stdDeviation="10" result="blur"/>
      <feMerge>
        <feMergeNode in="blur"/>
        <feMergeNode in="SourceGraphic"/>
      </feMerge>
    </filter>
  </defs>

  <rect x="16" y="16" width="224" height="224" rx="56" fill="url(#bg)"/>
  <rect x="16" y="16" width="224" height="224" rx="56" stroke="#FFD58E" stroke-opacity="0.26" stroke-width="4"/>

  <circle cx="128" cy="128" r="76" fill="#1A0C07" fill-opacity="0.62" stroke="#FFD08A" stroke-opacity="0.3" stroke-width="2"/>
  <circle cx="128" cy="128" r="60" stroke="#FFD08A" stroke-opacity="0.2" stroke-width="2" stroke-dasharray="7 7"/>

  <g filter="url(#glow)">
    <path d="M128 63L147 83L174 82L167 108L187 128L167 148L174 174L147 173L128 193L109 173L82 174L89 148L69 128L89 108L82 82L109 83L128 63Z" fill="url(#sigil)" fill-opacity="0.96"/>
    <path d="M128 84V171" stroke="#7E360E" stroke-width="10" stroke-linecap="round"/>
    <path d="M103 108H153" stroke="#7E360E" stroke-width="10" stroke-linecap="round"/>
    <path d="M96 135H160" stroke="#7E360E" stroke-width="10" stroke-linecap="round"/>
    <path d="M107 160H149" stroke="#7E360E" stroke-width="10" stroke-linecap="round"/>
    <circle cx="128" cy="128" r="46" stroke="#FFF1D1" stroke-opacity="0.68" stroke-width="3"/>
  </g>

  <path d="M49 207C75 183 101 174 128 174C155 174 181 183 207 207" stroke="#FFF2DA" stroke-opacity="0.18" stroke-width="5" stroke-linecap="round"/>
</svg>